# xmcd CD database file
#
# Track frame offsets:
#	150
#	47475
#	125095
#	164801
#	228532
#
# Disc length: 4000 seconds
#
# Revision: 0
# Processed by: cddbd v1.5.1PL0 Copyright (c) Steve Scherf et al.
# Submitted via: CDex 1.51
#
DISCID=430f9e05
DTITLE=Joshua Redman's Elastic  Band - Live in Paris
DYEAR=2002
DGENRE=Jazz
TTITLE0=In the Blink of an Eye
TTITLE1=Moten Soul
TTITLE2=Unknowing
TTITLE3=Jazz Crimes
TTITLE4=Still Pushing That Rock
EXTD=YEAR: 2002
EXTT0=
EXTT1=
EXTT2=
EXTT3=
EXTT4=
PLAYORDER=
